# xmcd
# 
# Track frame offsets:
#     150
#     10281
#     21810
#     33249
#     52431
#     65638
#     76061
#     86569
#     101237
#     123778
#     145836
#     160336
#     173428
#     184132
#     197848
#     212209
# 
# Disc length: 2995
# 
# Revision: 2
# Processed by: cddbd v1.5.2PL0 Copyright (c) Steve Scherf et al.
# Submitted via: BonkEnc v1.0rc1
# 
DISCID=db0bb110
DTITLE=Various Artist - Intern. Country Hits-CD1
DYEAR=0
DGENRE=Country
TTITLE0=Dave Dudley - Truck drivin' sun-of-a-gun
TTITLE1=Lynn Anderson - Listen to a Country song
TTITLE2=Brenda Lee - Silver threads and golden needles
TTITLE3=Tim Breed - Riverdance
TTITLE4=Johnny Paycheck - Drinking' and driving'
TTITLE5=Glen Campbell and Patsy Cline - Too many secrets
TTITLE6=Charlie Pride - Mississipi cotton picking delta town
TTITLE7=Robert Mitchum - O-He, O-Hi, O-Ho
TTITLE8=Joice Newton - Red blooded american girl
TTITLE9=Mark Knopfler and Dave Edmunds - Ride on midnigth special
TTITLE10=Howard - San Antonio
TTITLE11=Charlie Rich - The most beautiful girl in the World
TTITLE12=Johnny Tillotson - Send me the pillow that you dream on
TTITLE13=Nancy Wood and George and Lucky Riders - Love in your eyes
TTITLE14=Elvis Aaron Presley Jr. - I believe America is strong
TTITLE15=Susan Raye - L.A. International Airport
EXTD=
EXTT0=
EXTT1=
EXTT2=
EXTT3=
EXTT4=
EXTT5=
EXTT6=
EXTT7=
EXTT8=
EXTT9=
EXTT10=
EXTT11=
EXTT12=
EXTT13=
EXTT14=
EXTT15=
PLAYORDER=
